<?xml version="1.0" encoding="utf-8"?>
<!-- Generator: Adobe Illustrator 25.0.1, SVG Export Plug-In . SVG Version: 6.00 Build 0)  -->
<svg version="1.1" id="Layer_1" xmlns="http://www.w3.org/2000/svg" xmlns:xlink="http://www.w3.org/1999/xlink" x="0px" y="0px"
	 viewBox="0 0 1920 6416.5" style="enable-background:new 0 0 1920 6416.5;" xml:space="preserve">
<style type="text/css">
	.st0{fill:#3B0042;}
	.st1{fill:#72116E;}
</style>
<path class="st0" d="M1186.1,0c0,0,148.4,188.4-205.5,513.5C689.5,781,787.5,1059.6,951,1231c158.3,166,422.8,263.1,443.2,621
	c27.6,482.6-436.3,678.1-613.9,826.1c-177.6,148-287,387.2-130.6,598.6c170,229.8,523.9,225.2,671,537.7
	c158.4,336.6-111,627.8-413.6,739.9c-248.2,91.9-449.7,352.8-248.2,574.5c213.2,234.5,122.1,561.7-206.8,537.7
	c-142.2-10.4-298.1,59.9-344.1,179.4c-51,132.5-30.4,322.1,118.9,413.5c217.5,133.1,662.9,73.2,665.3-179.5
	c2.1-224.8,186.8-409.5,345.7-468.5c374-138.9,682,13.8,682,82.7v722.4H0V0H1186.1z"/>
<rect x="159.5" y="6436.4" class="st1" width="371.1" height="336.4"/>
</svg>
