<?xml version="1.0" encoding="utf-8"?>
<!-- Generator: Adobe Illustrator 25.0.1, SVG Export Plug-In . SVG Version: 6.00 Build 0)  -->
<svg version="1.1" id="Layer_1" xmlns="http://www.w3.org/2000/svg" xmlns:xlink="http://www.w3.org/1999/xlink" x="0px" y="0px"
	 viewBox="0 0 117.6 91.8" style="enable-background:new 0 0 117.6 91.8;" xml:space="preserve">
<style type="text/css">
	.st0{fill:url(#SVGID_1_);}
</style>
<linearGradient id="SVGID_1_" gradientUnits="userSpaceOnUse" x1="1069.5508" y1="-23.5623" x2="743.7794" y2="-1.3894" gradientTransform="matrix(1 0 0 -1 0 92)">
	<stop  offset="0" style="stop-color:#FFFFFF;stop-opacity:0"/>
	<stop  offset="1" style="stop-color:#FCCA00"/>
</linearGradient>
<path class="st0" d="M94.9,22.4c-0.2,0-0.4,0-0.7,0C91.4,9.6,80,0,66.3,0c-8.4,0-16,3.7-21.2,9.5c-4-2.5-8.7-3.9-13.8-3.9
	C16.7,5.6,4.9,17.4,4.9,32c0,5.3,1.6,10.2,4.3,14.4C3.6,51.1,0,58.2,0,66.1c0,14.2,11.5,25.7,25.7,25.7c6,0,11.5-2.1,15.9-5.5
	c5.4,3.5,11.8,5.5,18.8,5.5c15.5,0,28.6-10.2,33-24.2c0.5,0,1.1,0.1,1.6,0.1c12.5,0,22.6-10.1,22.6-22.6
	C117.5,32.5,107.4,22.4,94.9,22.4z"/>
</svg>
