<?xml version="1.0" encoding="utf-8"?>
<!-- Generator: Adobe Illustrator 25.0.1, SVG Export Plug-In . SVG Version: 6.00 Build 0)  -->
<svg version="1.1" id="Layer_1" xmlns="http://www.w3.org/2000/svg" xmlns:xlink="http://www.w3.org/1999/xlink" x="0px" y="0px"
	 viewBox="0 0 145.2 140.5" style="enable-background:new 0 0 145.2 140.5;" xml:space="preserve">
<style type="text/css">
	.st0{fill:url(#SVGID_1_);}
</style>
<linearGradient id="SVGID_1_" gradientUnits="userSpaceOnUse" x1="1357.0071" y1="-17.7878" x2="942.8026" y2="10.4041" gradientTransform="matrix(1 0 0 -1 0 141)">
	<stop  offset="0" style="stop-color:#FFFFFF;stop-opacity:0"/>
	<stop  offset="1" style="stop-color:#FCCA00"/>
</linearGradient>
<path class="st0" d="M134.2,60.4c1.7-4,2.7-8.4,2.7-13.1c0-18.1-14.6-32.7-32.7-32.7c-4.7,0-9.2,1-13.3,2.8C81.4,6.7,67.5,0,52.1,0
	C23.3,0,0,23.3,0,52.1c0,17.6,8.8,33.2,22.2,42.6c-0.5,2.4-0.7,4.9-0.7,7.5c0,21.2,17.1,38.3,38.3,38.3c12,0,22.7-5.5,29.7-14.1
	c4.6,1.8,9.5,2.7,14.7,2.7c22.6,0,41-18.3,41-41C145.2,77.5,141,67.7,134.2,60.4z"/>
</svg>
