<?xml version="1.0" encoding="utf-8"?>
<!-- Generator: Adobe Illustrator 25.0.1, SVG Export Plug-In . SVG Version: 6.00 Build 0)  -->
<svg version="1.1" id="Layer_1" xmlns="http://www.w3.org/2000/svg" xmlns:xlink="http://www.w3.org/1999/xlink" x="0px" y="0px"
	 viewBox="0 0 115.3 99.4" style="enable-background:new 0 0 115.3 99.4;" xml:space="preserve">
<style type="text/css">
	.st0{fill:url(#SVGID_1_);}
</style>
<linearGradient id="SVGID_1_" gradientUnits="userSpaceOnUse" x1="1039.4612" y1="116.0446" x2="722.9905" y2="94.5047">
	<stop  offset="0" style="stop-color:#FFFFFF;stop-opacity:0"/>
	<stop  offset="1" style="stop-color:#FCCA00"/>
</linearGradient>
<path class="st0" d="M115.3,36.8c0-13.3-10.8-24.1-24.1-24.1c-0.3,0-0.6,0-0.9,0C87.9,5.3,81,0,72.8,0c-9.1,0-16.7,6.7-18.1,15.4
	c-5-7-13.2-11.6-22.5-11.6C17,3.8,4.6,16.2,4.6,31.4c0,8.3,3.6,15.7,9.4,20.7C5.8,55.4,0,63.4,0,72.8C0,85,10,95,22.3,95
	c5,0,9.6-1.7,13.4-4.5c6.5,5.6,14.9,9.1,24.2,9.1c20.3,0,36.8-16.5,36.8-36.8c0-0.8,0-1.7-0.1-2.5C107.3,57.9,115.3,48.3,115.3,36.8
	z"/>
</svg>
