<?xml version="1.0" encoding="utf-8"?>
<!-- Generator: Adobe Illustrator 25.0.1, SVG Export Plug-In . SVG Version: 6.00 Build 0)  -->
<svg version="1.1" id="Layer_1" xmlns="http://www.w3.org/2000/svg" xmlns:xlink="http://www.w3.org/1999/xlink" x="0px" y="0px"
	 viewBox="0 0 1447.5 685.7" style="enable-background:new 0 0 1447.5 685.7;" xml:space="preserve">
<style type="text/css">
	.st0{fill:url(#SVGID_1_);}
</style>
<radialGradient id="SVGID_1_" cx="1440.6499" cy="691.5923" r="1104.8802" gradientUnits="userSpaceOnUse">
	<stop  offset="0" style="stop-color:#FFFFFF;stop-opacity:0"/>
	<stop  offset="1" style="stop-color:#FCCA00"/>
</radialGradient>
<path class="st0" d="M375.1,549.5C219,666.8,65.4,570.2,27.5,507c-57.6-96-17.7-209.8,56.3-337.8C193.5-20.5,487.2-16.9,642.1,19.8
	c75.4,17.9,195.5,46.4,260.8,147.1c82.7,127.6-6.2,152.8,49,235.9c23.4,35.2,65.9,54.8,128,27.2c246.2-109.4,234.7,135.6,355,230.9
	c50.5,40-61.4,40-147.1-64.3c-116-141.3-230.5-66.5-298.7,5.7c-96.5,102.3-253.9,83.3-368.8,32.2C512.4,586.5,534.1,430,375.1,549.5
	z"/>
</svg>
